<svg width="20" height="20" viewBox="0 0 20 20" fill="none" xmlns="http://www.w3.org/2000/svg">
<path d="M19.625 15.5V14.125H18.1806C18.0919 13.6946 17.921 13.2854 17.6773 12.9198L18.7017 11.8954L17.7296 10.9233L16.7052 11.9477C16.3396 11.704 15.9304 11.5331 15.5 11.4444V10H14.125V11.4444C13.6946 11.5331 13.2854 11.704 12.9198 11.9477L11.8954 10.9233L10.9233 11.8954L11.9477 12.9198C11.704 13.2854 11.5331 13.6946 11.4444 14.125H10V15.5H11.4444C11.5331 15.9304 11.704 16.3396 11.9477 16.7052L10.9233 17.7296L11.8954 18.7017L12.9198 17.6773C13.2854 17.921 13.6946 18.0919 14.125 18.1806V19.625H15.5V18.1806C15.9304 18.0919 16.3396 17.921 16.7052 17.6773L17.7296 18.7017L18.7017 17.7296L17.6773 16.7052C17.921 16.3396 18.0919 15.9304 18.1806 15.5H19.625ZM14.8125 16.875C14.4046 16.875 14.0058 16.754 13.6666 16.5274C13.3275 16.3008 13.0631 15.9787 12.907 15.6018C12.7509 15.2249 12.71 14.8102 12.7896 14.4101C12.8692 14.01 13.0656 13.6425 13.3541 13.3541C13.6425 13.0656 14.01 12.8692 14.4101 12.7896C14.8102 12.71 15.2249 12.7509 15.6018 12.907C15.9787 13.0631 16.3008 13.3275 16.5274 13.6666C16.754 14.0058 16.875 14.4046 16.875 14.8125C16.8745 15.3593 16.657 15.8836 16.2703 16.2703C15.8836 16.657 15.3593 16.8745 14.8125 16.875Z" fill="#FF8E4F"/>
<path d="M18.25 1.75H1.75C1.38544 1.75036 1.03591 1.89535 0.77813 2.15313C0.520347 2.41091 0.375364 2.76044 0.375 3.125V16.875C0.375364 17.2396 0.520347 17.5891 0.77813 17.8469C1.03591 18.1047 1.38544 18.2496 1.75 18.25H8.625V16.875H1.75V7.25H18.25V9.3125H19.625V3.125C19.6246 2.76044 19.4797 2.41091 19.2219 2.15313C18.9641 1.89535 18.6146 1.75036 18.25 1.75ZM18.25 5.875H1.75V3.125H18.25V5.875Z" fill="#FF8E4F"/>
<path d="M12.75 5.1875C13.1297 5.1875 13.4375 4.8797 13.4375 4.5C13.4375 4.1203 13.1297 3.8125 12.75 3.8125C12.3703 3.8125 12.0625 4.1203 12.0625 4.5C12.0625 4.8797 12.3703 5.1875 12.75 5.1875Z" fill="#FF8E4F"/>
<path d="M14.8125 5.1875C15.1922 5.1875 15.5 4.8797 15.5 4.5C15.5 4.1203 15.1922 3.8125 14.8125 3.8125C14.4328 3.8125 14.125 4.1203 14.125 4.5C14.125 4.8797 14.4328 5.1875 14.8125 5.1875Z" fill="#FF8E4F"/>
<path d="M16.875 5.1875C17.2547 5.1875 17.5625 4.8797 17.5625 4.5C17.5625 4.1203 17.2547 3.8125 16.875 3.8125C16.4953 3.8125 16.1875 4.1203 16.1875 4.5C16.1875 4.8797 16.4953 5.1875 16.875 5.1875Z" fill="#FF8E4F"/>
</svg>
