<svg width="20" height="16" viewBox="0 0 20 16" fill="none" xmlns="http://www.w3.org/2000/svg">
<path d="M1.36003 0.159912C1.24069 0.159912 1.12623 0.207323 1.04184 0.291714C0.957445 0.376105 0.910034 0.490565 0.910034 0.609912V13.3899C0.910034 13.5093 0.957445 13.6237 1.04184 13.7081C1.12623 13.7925 1.24069 13.8399 1.36003 13.8399H13.3984C13.2411 13.6329 13.0842 13.4257 12.9261 13.2189C12.7296 12.9289 12.4441 12.6807 12.3604 12.3283C11.203 12.806 9.87313 12.8503 8.68549 12.4537C8.65939 12.4453 8.63383 12.4348 8.60791 12.426C8.47165 12.5592 8.32477 12.7914 8.30155 12.9399H6.59029C6.71881 12.5045 6.44593 11.8246 6.70405 11.3815C6.72457 11.3761 6.74941 11.3413 6.76075 11.3055C6.73159 11.2782 6.70207 11.2515 6.67363 11.2236C6.42055 11.3007 6.31939 11.4913 6.17863 11.6585C6.25549 12.0228 5.70073 11.9366 5.75671 12.3083C6.14317 12.608 5.39995 12.3796 5.17891 12.4035C4.94437 12.406 4.25821 12.1605 4.49635 12.6627C4.45909 12.8006 4.49347 12.8852 4.56205 12.9399H4.45693C4.44055 12.7822 4.14355 12.7588 4.02907 12.6814C3.83629 12.6346 3.60607 12.6112 3.40645 12.5223C3.35515 12.6649 2.89219 12.828 2.79085 12.9399H1.81003V6.36433C1.94809 6.45685 2.25769 6.42013 1.83577 6.22033H1.81003V4.14781C1.89193 4.10641 1.95043 4.09327 1.94683 4.16257C2.14969 4.09417 2.23807 3.60043 2.58907 3.80257C2.80795 3.83479 3.17011 4.17409 2.98813 4.21657C3.12997 4.56289 3.23059 4.33987 3.40465 4.75261C3.28549 5.31709 3.74179 5.73541 3.99217 6.09523C4.29205 6.21979 4.41067 6.60751 4.89811 6.62263C4.96435 6.68059 5.04931 6.73315 5.13787 6.78355C5.16217 6.59743 5.19655 6.41275 5.23993 6.23023C5.22823 6.22753 5.21689 6.22591 5.20429 6.22177C4.73539 6.65431 4.63927 5.90551 5.09719 5.87617C5.12779 5.87419 5.16073 5.87581 5.19619 5.88067C5.24929 5.87437 5.29339 5.88067 5.33065 5.89381C5.48102 5.40083 5.70384 4.93293 5.99179 4.50547C6.14643 4.27472 6.32001 4.05725 6.51073 3.85531C6.41605 3.69691 6.31921 3.60853 6.20491 3.81535C6.19627 3.50845 5.36647 3.18679 5.97703 3.48127C6.29725 3.75721 6.40219 3.43339 6.45277 3.21235C6.72727 2.92615 6.17143 2.82841 6.27277 2.64139C6.10429 2.38885 5.85481 2.13019 5.59849 1.97377C5.10133 2.03137 4.92709 1.92643 5.59183 1.92607C5.65177 1.61557 5.75131 1.39561 5.81989 1.13425C5.74789 1.11355 5.67265 1.11679 5.59849 1.11661C5.28043 1.07395 5.09161 1.19689 5.09809 1.43971C4.85923 1.42063 5.07379 1.01347 4.70551 1.13785C4.14715 1.12903 4.82215 1.31767 4.77031 1.34485C4.70641 1.48813 4.30411 1.39885 4.35145 1.54411C4.16713 1.20319 4.08325 1.70665 3.93979 1.36177C3.85339 1.27897 4.30159 1.44349 4.19953 1.14163C3.97381 1.05523 3.89299 1.20643 3.71713 1.26817C3.19225 1.55869 3.80875 1.83193 4.07533 1.92877C4.47709 1.82167 4.47673 1.68631 4.75609 1.83517C5.06929 2.00887 4.43983 1.88683 4.45909 2.15413C4.42309 1.98799 4.37809 1.88773 4.18369 2.10067C3.92449 2.14747 3.80875 1.79125 3.61525 1.81627C3.17425 1.75633 3.33895 2.74813 3.70219 2.41045C3.92197 2.79079 3.42139 2.51017 3.27289 2.46769C2.93755 2.84227 2.57629 2.45797 2.17597 2.44249C2.04781 2.35717 1.92217 2.35609 1.81003 2.39947V1.05991H6.53017C6.19357 1.06909 5.89297 1.11355 6.01537 1.35565C5.99557 1.82257 6.59965 1.45177 6.68659 1.87405C6.93751 2.16907 6.53737 2.79637 6.97135 2.68621C6.81169 2.88043 6.83167 3.18985 6.95623 3.43375C7.41702 3.04701 7.93959 2.74058 8.50207 2.52727C8.51197 2.47183 8.50423 2.40811 8.47111 2.33287C8.41477 2.05045 8.67685 1.96027 8.58505 1.64707C8.70853 1.41127 8.61277 1.16179 8.40109 1.05991H18.19V2.33395C18.1621 2.32198 18.1334 2.31188 18.1042 2.30371C17.8506 2.53357 18.0556 2.55535 18.19 2.50369V2.70457C17.8902 2.53591 17.5608 2.51737 17.2409 2.58757C17.0956 2.33503 16.5814 2.34097 16.4122 2.11363C16.1141 1.75651 16.5031 1.86307 16.7632 1.83553C16.6894 1.61233 16.2466 1.50649 16.0596 1.54339C15.7217 1.72843 16.237 1.89439 16.185 2.14279C16.185 2.32333 15.9649 2.32459 15.7728 2.31469C15.8504 2.12353 15.4051 1.88845 15.2285 2.04397C14.8942 1.94281 14.7668 2.00221 14.9873 1.65409C14.9103 1.38643 14.5918 1.38139 14.4491 1.19563C14.2668 1.58227 13.9627 1.46509 13.6369 1.70053C13.5064 1.89133 13.2346 2.06269 13.2211 2.18869C13.0192 2.28355 12.817 1.79953 12.6754 2.22829C12.5469 2.59117 12.6826 2.76703 12.249 2.47003C11.8002 1.99177 13.1504 1.58209 12.6486 1.37851C12.232 1.50001 11.9817 1.79359 11.8989 2.21065C11.854 2.30551 11.8744 2.37157 11.9217 2.42503C13.5028 2.89663 14.8113 4.16815 15.3432 5.72803C15.3514 5.63407 15.3671 5.54371 15.3986 5.47765C15.5316 5.37613 15.4261 5.86735 15.701 5.58799C15.4985 6.02269 16.21 5.64559 16.3063 5.46613C16.1652 5.11189 16.8139 4.94503 16.7988 4.87825C16.56 4.62769 16.6957 4.87699 16.4322 4.93441C16.3449 4.81813 16.5996 4.18057 16.2606 4.23907C15.7545 4.10875 16.6912 3.73597 16.9441 3.87313C17.0593 3.44689 17.2249 3.78637 16.9403 3.98239C16.8319 4.36057 16.8838 4.87645 17.2026 4.37101C17.3458 4.23151 17.3102 3.86791 17.4967 3.80455C17.7472 3.68647 18.1944 3.59413 18.1827 3.22909C18.1852 3.22837 18.1875 3.22855 18.19 3.22801V12.9399H17.4774C17.6319 12.7261 17.8362 12.3603 17.6198 12.2277C17.2938 12.1713 17.0503 11.7782 16.6563 11.7946C16.4784 11.5897 16.0689 11.4861 15.9588 11.4461C15.8486 11.4061 15.6574 11.6371 15.4616 11.535C15.4027 11.5255 15.3425 11.5266 15.2839 11.5383C15.8733 12.3033 16.457 13.0724 17.0429 13.8399H18.64C18.7594 13.8399 18.8738 13.7925 18.9582 13.7081C19.0426 13.6237 19.09 13.5093 19.09 13.3899V0.609912C19.09 0.490565 19.0426 0.376105 18.9582 0.291714C18.8738 0.207323 18.7594 0.159912 18.64 0.159912H1.36003ZM10.1242 1.11751C9.83443 1.26025 10.3483 1.82851 10.3626 1.28599C10.4157 1.36519 10.7719 1.44511 10.6554 1.18969C10.3966 1.03723 10.4358 1.21255 10.1241 1.11769M14.2786 1.11805C14.5522 1.27321 13.966 1.27033 14.2786 1.11805ZM4.34623 1.16971C4.11223 1.34359 4.68967 1.51567 4.37683 1.17889L4.34623 1.16971ZM6.26233 1.27285C6.32083 1.32901 6.20455 1.30903 6.26233 1.27285ZM4.00243 1.49515C4.02997 1.52701 3.98803 1.49749 4.00243 1.49515ZM4.80397 1.56931C5.08603 1.61827 4.78237 1.68451 4.80397 1.56931ZM5.19907 1.60171C5.46727 1.58461 5.29753 1.66831 5.19907 1.60171ZM4.41157 1.61359C4.58599 1.63159 4.38925 1.69441 4.41157 1.61359ZM4.96993 1.86703C5.14633 1.90771 4.88317 1.92193 4.96993 1.86703ZM5.09431 2.14765C4.98811 2.48641 5.47177 2.94505 5.09647 2.55895C4.99333 2.40451 4.93969 2.25655 5.09431 2.14765ZM4.46467 2.18185C4.61929 2.44015 4.85473 2.50909 4.65763 2.59801C4.52677 2.53465 4.49653 2.33737 4.46467 2.18185ZM6.89089 2.44213C6.91267 2.45671 6.83221 2.44573 6.89089 2.44213ZM3.24121 2.52367C3.22105 2.60539 3.21331 2.52493 3.24121 2.52367ZM4.63513 2.65579C4.62253 2.82607 4.55287 2.65273 4.63513 2.65579ZM5.66977 2.65687C5.60245 2.98987 5.86957 2.96863 5.85157 3.00211C5.63089 3.09931 5.68363 3.49963 5.51479 3.19417C5.40823 3.14449 5.56951 2.70493 5.64205 2.66641L5.66977 2.65687ZM4.58491 2.65723C4.60849 2.66263 4.58329 2.73517 4.58491 2.65723ZM17.6054 2.68711C17.6126 2.69935 17.5741 2.71771 17.6054 2.68711ZM4.59787 2.73067C4.72063 2.85919 4.43335 2.84767 4.59787 2.73067ZM10.3179 2.90761C9.33636 2.91443 8.3836 3.24002 7.60315 3.83533C5.60695 5.35543 5.21851 8.22103 6.73861 10.2172C8.16151 12.0858 10.7598 12.5365 12.7236 11.3401L13.0987 11.8327C13.0249 12.0045 13.0318 12.1686 13.1176 12.2817L15.8392 15.8556C16.0012 16.0681 16.3924 16.0428 16.7128 15.7987C17.0332 15.5548 17.1615 15.1845 16.9997 14.9718L14.2781 11.3979C14.1921 11.2848 14.0356 11.2344 13.8504 11.26L13.4753 10.7675C15.1509 9.19249 15.4078 6.56809 13.9851 4.69951C13.2249 3.70141 12.1284 3.10561 10.9724 2.94901C10.7555 2.91965 10.5368 2.90581 10.3179 2.90761ZM5.20789 3.35905C5.32039 3.62617 5.75491 3.46939 5.58481 3.83353C5.77417 4.01173 5.55475 4.63993 5.48113 4.10461C5.00989 4.10227 4.78489 3.63211 5.18053 3.38533L5.20789 3.35905ZM5.61847 3.40333C5.76247 3.52573 5.39167 3.47155 5.61847 3.40333ZM16.9275 3.73237C16.9714 3.78799 16.9401 3.72337 16.9275 3.73237ZM10.4992 3.91615C11.0215 3.93607 11.533 4.07169 11.9965 4.31324C12.4601 4.55479 12.8643 4.89624 13.1799 5.31295C13.4627 5.68262 13.6696 6.1045 13.7889 6.55436C13.9082 7.00422 13.9374 7.47322 13.875 7.93442C13.8125 8.39562 13.6596 8.83994 13.425 9.24188C13.1904 9.64382 12.8787 9.99547 12.5078 10.2766C12.1381 10.5594 11.7162 10.7664 11.2663 10.8857C10.8165 11.005 10.3475 11.0342 9.88623 10.9718C9.42501 10.9093 8.98067 10.7564 8.57871 10.5218C8.17675 10.2871 7.8251 9.97542 7.54393 9.60451C7.26119 9.23483 7.05425 8.81295 6.93498 8.36308C6.81571 7.91321 6.78648 7.44421 6.84894 6.98301C6.91141 6.52181 7.06435 6.07749 7.29899 5.67555C7.53363 5.27362 7.84534 4.92198 8.21623 4.64083C8.86952 4.14062 9.677 3.8843 10.4992 3.91615ZM17.445 4.10155C17.7843 4.29253 17.1624 4.33537 17.445 4.10155ZM17.7816 4.29631C18.055 4.44931 17.4688 4.44913 17.7816 4.29631ZM17.9854 4.36759C18.2698 4.47775 17.7064 4.59979 17.9854 4.36759ZM17.9742 4.41799C17.9897 4.41781 17.9647 4.43437 17.9742 4.41799ZM18.0009 4.44697C18.0093 4.46065 17.9784 4.44985 18.0009 4.44697ZM10.3798 4.63471C9.98635 4.62769 9.59791 4.71571 9.23971 4.87375C9.25843 4.89661 9.28525 4.91857 9.32449 4.93837C8.96449 4.82137 8.85973 5.27623 9.01129 5.48089L9.25483 5.50087L9.45841 5.41123C9.58999 5.27443 9.62275 5.29801 9.66523 5.09083L9.74461 5.10109L9.80761 5.07481L9.95107 5.14573C10.1232 5.21305 10.1313 5.35813 10.0737 5.40061C9.99211 5.45083 10.0882 5.45821 10.0962 5.48935C10.1368 5.47765 10.1606 5.44255 10.1862 5.42383L10.2322 5.40727C10.4004 5.29693 10.283 5.26057 10.1662 5.11171L10.2281 5.12755C10.3186 5.23015 10.3719 5.34625 10.4256 5.46955C10.4317 5.47441 10.4373 5.48071 10.4443 5.48287C10.485 5.49637 10.5424 5.49187 10.5915 5.47837C10.6401 5.46505 10.6434 5.37235 10.6351 5.28361C10.7044 5.59969 11.3841 5.50573 10.9796 5.69851C10.7465 5.70373 10.3761 5.57593 10.3078 5.73739C10.157 5.66899 10.08 5.62417 10.0494 5.58907C9.95647 5.55415 9.68917 5.45299 9.67963 5.45299C9.66829 5.45299 9.32809 5.51491 9.32809 5.51491L9.04729 5.62147C8.95603 5.91559 8.81203 5.75827 8.76307 5.98633C8.72473 6.13213 8.39479 6.44713 8.56759 6.69517C8.72185 7.41265 9.61627 6.93493 9.82471 7.27945C9.72679 7.49167 10.2112 7.89541 9.94009 8.24299C10.0679 8.74789 10.4113 9.59191 10.9639 8.87335C11.1097 8.44315 11.4237 8.21059 11.4125 7.78381C11.2456 7.36351 12.2279 7.05193 11.835 6.71155C11.7408 6.72271 11.73 6.74305 11.6553 6.76789C11.4984 6.76195 11.4579 6.63541 11.4044 6.55585C11.3636 6.49781 11.3275 6.43659 11.2964 6.37279C11.3963 6.52759 11.4994 6.65899 11.6442 6.73981C11.8945 6.68365 12.1816 6.49843 12.2985 6.36253C12.2956 5.83279 13.0077 6.38233 12.9933 6.78049C13.0374 6.88777 13.0933 6.96229 13.1495 7.00585C13.1096 6.75121 13.0336 6.50356 12.9238 6.27037C12.7242 5.83225 12.4045 5.45605 12.016 5.17453C12.0088 5.18569 11.9908 5.18641 11.9944 5.15941C11.9419 5.12221 11.8882 5.08673 11.8333 5.05303C11.8393 5.07805 11.8465 5.10343 11.8548 5.12917C11.8312 5.09407 11.8063 5.05843 11.7858 5.02405C11.3617 4.77421 10.8754 4.63093 10.38 4.63453L10.3798 4.63471ZM16.2365 4.65847C16.367 5.03035 15.7825 5.89219 15.6976 5.32645C15.7575 5.04673 16.2372 5.08885 16.2365 4.65847ZM5.27899 4.75675C5.30527 4.75369 5.27485 4.77025 5.27899 4.75675ZM5.55637 4.88761C5.60875 4.93117 5.49301 4.92037 5.55637 4.88761ZM10.9614 4.89949C11.1067 5.02189 11.5524 5.18389 11.0806 5.05465C10.8351 5.16679 10.7591 5.09497 10.9614 4.89949ZM9.83857 5.11729C9.80689 5.12701 9.83371 5.19271 9.81391 5.21341C9.94891 5.27947 9.87331 5.15095 9.89329 5.12989C9.86593 5.11693 9.84901 5.11387 9.83857 5.11729ZM11.8965 5.25139C11.9383 5.35993 11.966 5.42923 11.8587 5.29459C11.8676 5.29028 11.8755 5.28424 11.882 5.27682C11.8885 5.2694 11.8934 5.26075 11.8965 5.25139ZM9.85117 5.26489C9.79825 5.25913 9.77017 5.29459 9.76999 5.34409C9.90949 5.41987 9.89509 5.29477 9.91219 5.28523C9.89321 5.27476 9.87265 5.26786 9.85117 5.26489ZM12.0063 6.03583C12.0859 6.03907 11.9302 6.15103 11.9568 6.04213C11.979 6.03727 11.995 6.03529 12.0063 6.03583ZM17.4893 6.73999C17.7982 7.06381 17.2301 7.01539 17.4893 6.73999ZM17.4713 6.78283C17.4979 6.77995 17.4664 6.80119 17.4713 6.78283ZM17.4936 6.82225C17.4961 6.84079 17.4666 6.81775 17.4936 6.82225ZM17.6821 6.85825C17.9852 6.99721 17.431 7.07677 17.6821 6.85825ZM17.7091 6.92035C17.7282 6.91711 17.7055 6.94681 17.7091 6.92035ZM17.6736 6.92989C17.6902 6.95221 17.659 6.94249 17.6736 6.92989ZM15.6222 7.21285C15.6267 7.32517 15.6276 7.43731 15.625 7.54945C15.8315 7.58239 16.0902 7.57303 16.095 7.80145C16.4651 7.81747 16.0569 8.35801 16.0434 7.85761C15.8926 7.83589 15.7388 7.86195 15.6036 7.93213C15.5661 8.32492 15.4857 8.71242 15.3639 9.08773C15.6663 8.99179 15.9748 9.00115 16.1569 9.29509C16.6366 9.29329 16.2286 9.62035 16.5686 9.68713C16.7135 9.39121 16.4923 9.42847 16.7641 9.18727C17.0278 8.85013 16.8552 8.41471 16.5922 8.23057C16.5375 8.02213 16.3195 7.90945 16.4221 7.76725C16.6219 8.03815 16.905 7.83529 16.6687 7.68877C16.8431 7.52587 17.4663 8.10853 17.1163 7.66033C16.9435 7.62829 16.7061 7.27099 16.6523 7.50103C16.6368 7.69183 16.1607 7.21141 15.985 7.40797C15.9343 7.23085 15.6859 7.33777 15.6718 7.41679C15.7482 7.29799 15.7001 7.23661 15.6222 7.21285ZM16.538 7.36675C16.7709 7.50823 16.2801 7.51327 16.538 7.36675ZM9.79969 7.37935C9.82039 7.42615 9.79375 7.38709 9.79969 7.37935ZM7.54015 7.40131C7.53481 7.65125 7.56259 7.9008 7.62277 8.14345C7.82977 7.82989 7.82167 7.53541 7.54015 7.40131ZM16.5247 7.40995C16.5402 7.42111 16.5056 7.41427 16.5247 7.40995ZM16.6991 7.43155C16.7832 7.49095 16.6149 7.49095 16.6991 7.43155ZM16.6991 7.43335C16.7756 7.48843 16.6224 7.48843 16.6991 7.43335ZM16.542 7.44901C16.5448 7.46719 16.5153 7.44577 16.542 7.44901ZM15.6236 7.64449C15.6218 7.68769 15.618 7.73089 15.6151 7.77409C15.6733 7.70857 15.6985 7.64089 15.6236 7.64449ZM11.521 7.83097C11.313 7.94527 11.7437 7.99747 11.5637 7.86337L11.556 7.84411L11.521 7.83097ZM11.7644 7.86301C11.5588 7.99153 11.2399 8.60425 11.6821 8.62351C11.7887 8.49679 12.0589 7.93177 11.7644 7.86301ZM17.3401 8.25325C17.8183 8.44819 17.1754 8.57815 17.3401 8.25325ZM12.0938 8.29645C12.3532 8.45323 11.8263 8.47591 12.0938 8.29645ZM17.7694 9.03733C17.9217 9.38203 17.4166 9.58849 17.4547 9.90853C17.7139 10.0335 17.8477 9.56329 18.0302 9.41947C18.246 9.23083 17.8603 9.17503 17.7694 9.03733ZM5.79793 10.0975C5.82745 10.2873 5.91637 10.4709 6.07513 10.5268C5.97587 10.3883 5.88336 10.245 5.79793 10.0975Z" fill="#FF8E4F"/>
</svg>
