<svg width="22" height="22" viewBox="0 0 22 22" fill="none" xmlns="http://www.w3.org/2000/svg">
<path d="M9.34324 1.73879C9.55164 1.50603 9.80678 1.31985 10.092 1.19238C10.3772 1.06491 10.6861 0.999023 10.9985 0.999023C11.3109 0.999023 11.6198 1.06491 11.9051 1.19238C12.1903 1.31985 12.4454 1.50603 12.6538 1.73879L13.4315 2.60756C13.6537 2.85586 13.929 3.05098 14.2369 3.17849C14.5448 3.30599 14.8774 3.3626 15.2101 3.34414L16.3766 3.2797C16.6886 3.2625 17.0007 3.31131 17.2925 3.42293C17.5844 3.53455 17.8494 3.70648 18.0703 3.92749C18.2912 4.14851 18.463 4.41363 18.5745 4.70555C18.686 4.99747 18.7347 5.30962 18.7173 5.62162L18.6529 6.78703C18.6346 7.11958 18.6913 7.45199 18.8188 7.75967C18.9463 8.06735 19.1413 8.34244 19.3894 8.56458L20.2582 9.34226C20.4911 9.55067 20.6774 9.80588 20.805 10.0912C20.9326 10.3766 20.9985 10.6856 20.9985 10.9982C20.9985 11.3107 20.9326 11.6198 20.805 11.9051C20.6774 12.1904 20.4911 12.4456 20.2582 12.6541L19.3894 13.4317C19.1411 13.654 18.946 13.9293 18.8185 14.2372C18.691 14.545 18.6344 14.8777 18.6529 15.2104L18.7173 16.3769C18.7345 16.6889 18.6857 17.0011 18.5741 17.2929C18.4625 17.5848 18.2905 17.8498 18.0695 18.0707C17.8485 18.2916 17.5834 18.4634 17.2915 18.5749C16.9996 18.6864 16.6874 18.7351 16.3755 18.7177L15.2101 18.6533C14.8775 18.635 14.5451 18.6917 14.2375 18.8192C13.9298 18.9467 13.6547 19.1417 13.4326 19.3899L12.6549 20.2586C12.4465 20.4916 12.1913 20.6779 11.906 20.8055C11.6207 20.9331 11.3116 20.999 10.9991 20.999C10.6865 20.999 10.3775 20.9331 10.0922 20.8055C9.80685 20.6779 9.55165 20.4916 9.34324 20.2586L8.56559 19.3899C8.34333 19.1416 8.06807 18.9464 7.7602 18.8189C7.45232 18.6914 7.1197 18.6348 6.78698 18.6533L5.6205 18.7177C5.3085 18.7349 4.99638 18.6861 4.70452 18.5745C4.41266 18.4629 4.14763 18.2909 3.92673 18.0699C3.70583 17.8489 3.53403 17.5838 3.42255 17.2919C3.31107 17 3.26241 16.6878 3.27976 16.3758L3.3442 15.2104C3.36249 14.8778 3.3058 14.5454 3.1783 14.2378C3.05081 13.9301 2.85578 13.655 2.60765 13.4328L1.73889 12.6552C1.50597 12.4468 1.31963 12.1915 1.19205 11.9062C1.06448 11.6209 0.998535 11.3118 0.998535 10.9993C0.998535 10.6867 1.06448 10.3777 1.19205 10.0923C1.31963 9.80699 1.50597 9.55178 1.73889 9.34337L2.60765 8.56569C2.85594 8.34343 3.05105 8.06816 3.17855 7.76027C3.30605 7.45239 3.36266 7.11976 3.3442 6.78703L3.27976 5.62051C3.26272 5.30859 3.31165 4.99659 3.42334 4.70485C3.53503 4.41312 3.70698 4.14822 3.92797 3.92743C4.14896 3.70665 4.41401 3.53494 4.70584 3.42353C4.99767 3.31211 5.30972 3.26348 5.62161 3.28081L6.78698 3.34525C7.11952 3.36354 7.45192 3.30685 7.75959 3.17935C8.06726 3.05185 8.34234 2.85682 8.56448 2.60867L9.34324 1.73879Z" stroke="#FF8E4F" stroke-width="1.5"/>
<path d="M8.22119 8.22144H8.2323V8.23255H8.22119V8.22144ZM13.7759 13.7763H13.787V13.7874H13.7759V13.7763Z" stroke="#FF8E4F" stroke-width="2.25" stroke-linejoin="round"/>
<path d="M14.3314 7.66602L7.66577 14.3318" stroke="#FF8E4F" stroke-width="1.5" stroke-linecap="round" stroke-linejoin="round"/>
</svg>
