<svg width="22" height="22" viewBox="0 0 22 22" fill="none" xmlns="http://www.w3.org/2000/svg">
<path d="M2.3572 3.14279C1.94043 3.14279 1.54073 3.30835 1.24603 3.60305C0.951327 3.89775 0.785767 4.29745 0.785767 4.71422V19.6428C0.785767 20.0596 0.951327 20.4593 1.24603 20.754C1.54073 21.0487 1.94043 21.2142 2.3572 21.2142H19.6429C20.0597 21.2142 20.4594 21.0487 20.7541 20.754C21.0488 20.4593 21.2143 20.0596 21.2143 19.6428V4.71422C21.2143 4.29745 21.0488 3.89775 20.7541 3.60305C20.4594 3.30835 20.0597 3.14279 19.6429 3.14279H16.5001M5.50005 0.785645V5.49993M16.5001 0.785645V5.49993M5.50005 3.14279H13.3572" stroke="#FF8E4F" stroke-linecap="round" stroke-linejoin="round"/>
<path d="M9.72406 7.1687C9.51568 7.1687 9.31583 7.25148 9.16848 7.39883C9.02113 7.54618 8.93835 7.74603 8.93835 7.95442V10.1638H6.72578C6.51739 10.1638 6.31754 10.2466 6.17019 10.394C6.02284 10.5413 5.94006 10.7412 5.94006 10.9496V13.5031C5.94006 13.7115 6.02284 13.9114 6.17019 14.0587C6.31754 14.2061 6.51739 14.2888 6.72578 14.2888H8.93678V16.4983C8.93678 16.7067 9.01956 16.9065 9.16691 17.0539C9.31426 17.2012 9.51411 17.284 9.72249 17.284H12.2761C12.3792 17.284 12.4814 17.2637 12.5767 17.2242C12.6721 17.1847 12.7587 17.1268 12.8316 17.0539C12.9046 16.9809 12.9625 16.8943 13.002 16.799C13.0415 16.7036 13.0618 16.6015 13.0618 16.4983V14.2888H15.2712C15.4796 14.2888 15.6794 14.2061 15.8268 14.0587C15.9741 13.9114 16.0569 13.7115 16.0569 13.5031V10.9496C16.0569 10.7412 15.9741 10.5413 15.8268 10.394C15.6794 10.2466 15.4796 10.1638 15.2712 10.1638H13.0633V7.95442C13.0633 7.74603 12.9806 7.54618 12.8332 7.39883C12.6859 7.25148 12.486 7.1687 12.2776 7.1687H9.72406Z" stroke="#FF8E4F" stroke-linecap="round" stroke-linejoin="round"/>
</svg>
