<svg width="20" height="20" viewBox="0 0 20 20" fill="none" xmlns="http://www.w3.org/2000/svg">
<g clip-path="url(#clip0_14_33)">
<path d="M19.25 2H13.25C12.838 2 12.261 2.239 11.97 2.53L4.53103 9.969C4.39076 10.1099 4.31201 10.3007 4.31201 10.4995C4.31201 10.6983 4.39076 10.8891 4.53103 11.03L10.97 17.469C11.111 17.6093 11.3017 17.688 11.5005 17.688C11.6994 17.688 11.8901 17.6093 12.031 17.469L19.47 10.03C19.762 9.738 20 9.162 20 8.75V2.75C19.9995 2.55125 19.9203 2.36079 19.7798 2.22025C19.6392 2.07972 19.4488 2.00053 19.25 2ZM15.5 8C15.303 7.99993 15.1079 7.96106 14.9258 7.88559C14.7438 7.81012 14.5784 7.69954 14.4392 7.56016C14.2999 7.42078 14.1894 7.25533 14.1141 7.07325C14.0387 6.89118 14 6.69605 14 6.499C14.0001 6.30195 14.039 6.10685 14.1144 5.92482C14.1899 5.7428 14.3005 5.57742 14.4399 5.43813C14.5792 5.29884 14.7447 5.18837 14.9268 5.11303C15.1088 5.03768 15.304 4.99893 15.501 4.999C15.899 4.99913 16.2806 5.15735 16.5619 5.43884C16.8432 5.72033 17.0012 6.10204 17.001 6.5C17.0009 6.89796 16.8427 7.27956 16.5612 7.56087C16.2797 7.84217 15.898 8.00013 15.5 8Z" fill="#FF8E4F"/>
<path d="M2.00003 10.5L10.5 2H9.25003C8.83803 2 8.26103 2.239 7.97003 2.53L0.531026 9.969C0.390758 10.1099 0.312012 10.3007 0.312012 10.4995C0.312012 10.6983 0.390758 10.8891 0.531026 11.03L6.97003 17.469C7.11095 17.6093 7.30169 17.688 7.50053 17.688C7.69936 17.688 7.8901 17.6093 8.03103 17.469L8.50103 16.999L2.00003 10.5Z" fill="#FF8E4F"/>
</g>
<defs>
<clipPath id="clip0_14_33">
<rect width="20" height="20" fill="white"/>
</clipPath>
</defs>
</svg>
