<svg width="21" height="21" viewBox="0 0 21 21" fill="none" xmlns="http://www.w3.org/2000/svg">
<path fill-rule="evenodd" clip-rule="evenodd" d="M5.10555 5.51418C6.69373 6.05915 8.35704 4.96529 8.6525 3.45615C8.8342 2.6718 9.0474 2.3288 9.2589 2.15325C9.4631 1.9838 9.8115 1.85039 10.5683 1.85039C11.1539 1.85039 11.4863 1.99769 11.7034 2.2017C11.9369 2.42113 12.1534 2.8151 12.2833 3.52781L12.2841 3.53228C12.4395 4.35955 13.009 4.98338 13.671 5.3285C14.3349 5.67459 15.1678 5.78359 15.953 5.50716C15.964 5.50331 15.9748 5.49925 15.9855 5.49496C16.7387 5.1947 17.1481 5.20064 17.3981 5.28508C17.644 5.36813 17.9261 5.5912 18.275 6.18244C18.6317 6.78675 18.6787 7.1092 18.6377 7.32725C18.5949 7.55554 18.4138 7.8931 17.7774 8.42128L17.7657 8.43112C16.4885 9.5302 16.4885 11.4705 17.7657 12.5697L17.7774 12.5795C18.4138 13.1077 18.5949 13.4452 18.6377 13.6735C18.6787 13.8916 18.6317 14.214 18.275 14.8183C17.928 15.4062 17.6417 15.6396 17.382 15.7332C17.1168 15.8287 16.6996 15.8432 15.9488 15.5871C14.426 15.0539 12.5762 15.9611 12.2818 17.6712C12.151 18.4309 11.9407 18.7315 11.7527 18.8771C11.5501 19.0341 11.197 19.1504 10.4701 19.1504C9.7705 19.1504 9.4105 19.0202 9.1989 18.8505C8.9939 18.686 8.7863 18.3698 8.6576 17.6666C8.3607 15.9595 6.51294 15.0544 4.99144 15.5871C4.24068 15.8432 3.82348 15.8287 3.55826 15.7332C3.29852 15.6396 3.01222 15.4062 2.66523 14.8183C2.66047 14.8103 2.65559 14.8023 2.65057 14.7944C2.34551 14.3145 2.31361 13.9819 2.37819 13.7205C2.45076 13.4266 2.68763 13.0493 3.25688 12.5829L3.27267 12.5697C4.57189 11.4516 4.4292 9.5137 3.17821 8.52744C2.61061 7.97113 2.4334 7.61747 2.39222 7.36117C2.35303 7.11724 2.40933 6.78552 2.75613 6.19472C3.07418 5.6982 3.36777 5.48756 3.65534 5.39897C3.9641 5.30386 4.40822 5.3052 5.10555 5.51418ZM10.5683 0.150391C9.6569 0.150391 8.8277 0.301991 8.17333 0.845031C7.52757 1.38091 7.20241 2.17479 6.99229 3.09023C6.98975 3.10128 6.98744 3.11237 6.98535 3.1235C6.8793 3.68821 6.20777 4.10004 5.64987 3.90363C5.63793 3.89942 5.62588 3.89548 5.61376 3.89181C4.75025 3.63056 3.92314 3.53764 3.15487 3.77431C2.3653 4.01753 1.77809 4.56429 1.314 5.29442C1.30898 5.30231 1.30409 5.31029 1.29934 5.31834C0.867583 6.04985 0.581493 6.80772 0.713753 7.63086C0.843503 8.4384 1.3471 9.121 2.02886 9.7811C2.05407 9.8055 2.08077 9.8283 2.10879 9.8494C2.57877 10.2033 2.61446 10.8865 2.17012 11.2756C1.4683 11.8525 0.924173 12.5177 0.727783 13.3128C0.523613 14.1394 0.733673 14.9427 1.20824 15.6943C1.64508 16.4312 2.19123 17.0477 2.9821 17.3326C3.77135 17.6169 4.62897 17.5075 5.54433 17.1947L5.55175 17.1922C6.18683 16.9686 6.88522 17.3912 6.98307 17.9596L6.98452 17.9678C7.15025 18.877 7.48195 19.6525 8.13521 20.1765C8.7822 20.6956 9.5997 20.8504 10.4701 20.8504C11.3133 20.8504 12.1377 20.7292 12.7937 20.2212C13.4643 19.7017 13.7936 18.9098 13.9572 17.9596C14.055 17.3912 14.7534 16.9686 15.3885 17.1922L15.3959 17.1947C16.3113 17.5075 17.1689 17.6169 17.9582 17.3326C18.7533 17.0462 19.301 16.4245 19.739 15.6824C20.1674 14.9568 20.4638 14.1867 20.3085 13.3598C20.1556 12.5456 19.6037 11.8872 18.8698 11.2769C18.3872 10.8569 18.3872 10.1439 18.8698 9.7239C19.6037 9.1136 20.1556 8.45523 20.3085 7.64103C20.4638 6.81408 20.1674 6.04403 19.739 5.31834C19.303 4.57958 18.751 3.94766 17.9421 3.67445C17.1428 3.40453 16.283 3.54904 15.3751 3.90825C15.0839 4.00615 14.7453 3.97138 14.4569 3.82104C14.1629 3.66779 13.9967 3.43742 13.9552 3.22017C13.7906 2.31904 13.4675 1.52657 12.8675 0.962831C12.2506 0.383091 11.4545 0.150391 10.5683 0.150391ZM8.3502 10.5004C8.3502 9.313 9.3128 8.35039 10.5002 8.35039C11.6876 8.35039 12.6502 9.313 12.6502 10.5004C12.6502 11.6878 11.6876 12.6504 10.5002 12.6504C9.3128 12.6504 8.3502 11.6878 8.3502 10.5004ZM10.5002 6.65039C8.3739 6.65039 6.6502 8.37409 6.6502 10.5004C6.6502 12.6267 8.3739 14.3504 10.5002 14.3504C12.6265 14.3504 14.3502 12.6267 14.3502 10.5004C14.3502 8.37409 12.6265 6.65039 10.5002 6.65039Z" fill="#FF8E4F"/>
</svg>
